<svg width="24" height="24" viewBox="0 0 24 24" fill="none" xmlns="http://www.w3.org/2000/svg">
<path fill-rule="evenodd" clip-rule="evenodd" d="M4 6.5V7.5C4 7.77614 4.22386 8 4.5 8H19.5C19.7761 8 20 7.77614 20 7.5V6.5C20 6.22386 19.7761 6 19.5 6H4.5C4.22386 6 4 6.22386 4 6.5Z" fill="#9ED6B1"/>
<path fill-rule="evenodd" clip-rule="evenodd" d="M4 11.5V12.5C4 12.7761 4.22386 13 4.5 13H19.5C19.7761 13 20 12.7761 20 12.5V11.5C20 11.2239 19.7761 11 19.5 11H4.5C4.22386 11 4 11.2239 4 11.5Z" fill="#9ED6B1"/>
<path fill-rule="evenodd" clip-rule="evenodd" d="M4 16.5V17.5C4 17.7761 4.22386 18 4.5 18H19.5C19.7761 18 20 17.7761 20 17.5V16.5C20 16.2239 19.7761 16 19.5 16H4.5C4.22386 16 4 16.2239 4 16.5Z" fill="#9ED6B1"/>
</svg>
