<svg width="24" height="24" viewBox="0 0 24 24" fill="none" xmlns="http://www.w3.org/2000/svg">
<path fill-rule="evenodd" clip-rule="evenodd" d="M19 4V16H8C7.44772 16 7 16.4477 7 17C7 17.5523 7.44772 18 8 18H19V20H8C6.34315 20 5 18.6569 5 17L5 7C5 5.34315 6.34315 4.00001 8 4L19 4ZM7 14.1707C7.31278 14.0602 7.64936 14 8 14H17V6L8 6C7.44771 6 7 6.44772 7 7L7 14.1707Z" fill="#9ED6B1"/>
<path fill-rule="evenodd" clip-rule="evenodd" d="M17.5 15.5C17.7761 15.5 18 15.7239 18 16V18C18 18.2761 17.7761 18.5 17.5 18.5C17.2239 18.5 17 18.2761 17 18V16C17 15.7239 17.2239 15.5 17.5 15.5Z" fill="#9ED6B1"/>
</svg>
