<svg width="50" height="50" viewBox="0 0 50 50" fill="none" xmlns="http://www.w3.org/2000/svg">
<path fill-rule="evenodd" clip-rule="evenodd" d="M25 48C12.2975 48 2 37.7025 2 25C2 12.2975 12.2975 2 25 2C37.7025 2 48 12.2975 48 25C48 37.7025 37.7025 48 25 48ZM0 25C0 11.1929 11.1929 0 25 0C38.8071 0 50 11.1929 50 25C50 38.8071 38.8071 50 25 50C11.1929 50 0 38.8071 0 25ZM32.1213 25.556L25.2528 32.4245L18.586 25.7577C17.4144 24.5861 17.4144 22.6866 18.586 21.5151C19.7576 20.3435 21.657 20.3435 22.8286 21.5151L23.8386 22.525L25.2528 23.9392L26.667 22.525L27.8787 21.3134C29.0503 20.1418 30.9497 20.1418 32.1213 21.3134C33.2929 22.4849 33.2929 24.3844 32.1213 25.556ZM25.2528 21.1108L26.4645 19.8992C28.4171 17.9465 31.5829 17.9465 33.5355 19.8992C35.4882 21.8518 35.4882 25.0176 33.5355 26.9702L26.2073 34.2984C26.119 34.3867 26.0183 34.4551 25.9108 34.5034C25.5201 34.8906 24.8894 34.8895 24.5 34.5001L17.1718 27.1719C15.2191 25.2193 15.2191 22.0535 17.1718 20.1008C19.1244 18.1482 22.2902 18.1482 24.2428 20.1008L25.2528 21.1108Z" fill="black"/>
</svg>
