<svg width="51" height="51" viewBox="0 0 51 51" fill="none" xmlns="http://www.w3.org/2000/svg">
<path fill-rule="evenodd" clip-rule="evenodd" d="M8.77938 10.0893C0.451024 19.1409 1.0373 33.2301 10.0889 41.5585C19.1404 49.8868 33.2296 49.3005 41.558 40.249C49.8864 31.1974 49.3001 17.1082 40.2485 8.77985C31.1969 0.451487 17.1077 1.03776 8.77938 10.0893ZM42.1943 6.6651C31.9748 -2.73789 16.0676 -2.07596 6.66463 8.14355C-2.73835 18.3631 -2.07643 34.2702 8.14308 43.6732C18.3626 53.0762 34.2698 52.4143 43.6728 42.1948C53.0757 31.9752 52.4138 16.0681 42.1943 6.6651ZM16.8992 35.1233C16.0254 34.3193 15.9688 32.9593 16.7728 32.0855L22.5942 25.7587L16.264 19.9343C15.3903 19.1304 15.3337 17.7703 16.1376 16.8966C16.9416 16.0228 18.3016 15.9662 19.1754 16.7702L25.5055 22.5945L31.3294 16.2649C32.1334 15.3911 33.4934 15.3345 34.3671 16.1385C35.2409 16.9424 35.2975 18.3024 34.4936 19.1762L28.6696 25.5059L34.9961 31.3268C35.8698 32.1308 35.9264 33.4908 35.1225 34.3646C34.3185 35.2383 32.9585 35.2949 32.0847 34.491L25.7583 28.67L19.9369 34.9969C19.133 35.8706 17.7729 35.9272 16.8992 35.1233Z" fill="#AEDBD6"/>
</svg>
