<svg width="313" height="124" viewBox="0 0 313 124" fill="none" xmlns="http://www.w3.org/2000/svg">
<path d="M9 16L67.0779 30.1743L119.017 51.9083L180.401 80.2569L255.477 102.463L306 119" stroke="#FFE7A8" stroke-width="2"/>
<circle cx="7" cy="15" r="4.5" fill="white" stroke="#888888"/>
<circle cx="70" cy="32" r="4.5" fill="white" stroke="#888888"/>
<circle cx="126" cy="55" r="4.5" fill="white" stroke="#888888"/>
<circle cx="182" cy="81" r="4.5" fill="white" stroke="#888888"/>
<circle cx="257" cy="104" r="4.5" fill="white" stroke="#888888"/>
<circle cx="306" cy="119" r="4.5" fill="white" stroke="#888888"/>
<path d="M2.766 1.244H0.198V0.692H3.492V1.112L1.476 5.498H0.81L2.766 1.244ZM5.65341 5.606C5.31741 5.606 5.02141 5.542 4.76541 5.414C4.51341 5.29 4.31741 5.118 4.17741 4.898C4.03741 4.674 3.96141 4.422 3.94941 4.142H4.57341C4.58141 4.41 4.68141 4.63 4.87341 4.802C5.06541 4.974 5.32541 5.06 5.65341 5.06C5.87341 5.06 6.06341 5.022 6.22341 4.946C6.38741 4.87 6.51141 4.766 6.59541 4.634C6.68341 4.502 6.72741 4.356 6.72741 4.196C6.72741 3.928 6.62541 3.718 6.42141 3.566C6.21741 3.414 5.93341 3.338 5.56941 3.338H5.04141V2.816H5.56941C5.87341 2.816 6.11941 2.738 6.30741 2.582C6.49941 2.422 6.59541 2.218 6.59541 1.97C6.59541 1.814 6.55541 1.672 6.47541 1.544C6.39541 1.412 6.27741 1.308 6.12141 1.232C5.96941 1.156 5.79141 1.118 5.58741 1.118C5.37941 1.118 5.19941 1.162 5.04741 1.25C4.89541 1.338 4.77941 1.456 4.69941 1.604C4.62341 1.752 4.58541 1.912 4.58541 2.084H3.95541C3.95541 1.804 4.02341 1.55 4.15941 1.322C4.29541 1.09 4.48741 0.908 4.73541 0.776C4.98341 0.644 5.26741 0.578 5.58741 0.578C5.90741 0.578 6.19141 0.64 6.43941 0.764C6.68741 0.884 6.87941 1.05 7.01541 1.262C7.15141 1.47 7.21941 1.7 7.21941 1.952C7.21941 2.232 7.13541 2.472 6.96741 2.672C6.79941 2.872 6.59741 3 6.36141 3.056C6.62941 3.104 6.85941 3.228 7.05141 3.428C7.24741 3.624 7.34541 3.878 7.34541 4.19C7.34541 4.458 7.27341 4.7 7.12941 4.916C6.98941 5.128 6.78941 5.296 6.52941 5.42C6.27341 5.544 5.98141 5.606 5.65341 5.606ZM8.41463 5.576C8.29463 5.576 8.19263 5.534 8.10863 5.45C8.02863 5.37 7.98863 5.27 7.98863 5.15C7.98863 5.03 8.02863 4.93 8.10863 4.85C8.19263 4.766 8.29463 4.724 8.41463 4.724C8.53463 4.724 8.63463 4.766 8.71463 4.85C8.79463 4.93 8.83463 5.03 8.83463 5.15C8.83463 5.27 8.79463 5.37 8.71463 5.45C8.63463 5.534 8.53463 5.576 8.41463 5.576ZM11.9476 1.244H9.37964V0.692H12.6736V1.112L10.6576 5.498H9.99164L11.9476 1.244Z" fill="#888888"/>
<path d="M65.766 41.244H63.198V40.692H66.492V41.112L64.476 45.498H63.81L65.766 41.244ZM66.9854 45.09L68.6894 43.38C68.9934 43.072 69.2114 42.814 69.3434 42.606C69.4754 42.394 69.5414 42.202 69.5414 42.03C69.5414 41.75 69.4534 41.532 69.2774 41.376C69.1014 41.216 68.8614 41.136 68.5574 41.136C68.3494 41.136 68.1694 41.184 68.0174 41.28C67.8694 41.372 67.7554 41.496 67.6754 41.652C67.5994 41.808 67.5614 41.978 67.5614 42.162H66.9314C66.9314 41.87 66.9974 41.604 67.1294 41.364C67.2654 41.124 67.4574 40.934 67.7054 40.794C67.9534 40.65 68.2394 40.578 68.5634 40.578C68.8834 40.578 69.1634 40.638 69.4034 40.758C69.6474 40.878 69.8354 41.048 69.9674 41.268C70.0994 41.488 70.1654 41.74 70.1654 42.024C70.1654 42.276 70.0894 42.526 69.9374 42.774C69.7854 43.022 69.5234 43.336 69.1514 43.716L67.8914 44.952H70.3274V45.498H66.9854V45.09ZM71.4029 45.576C71.2829 45.576 71.1809 45.534 71.0969 45.45C71.0169 45.37 70.9769 45.27 70.9769 45.15C70.9769 45.03 71.0169 44.93 71.0969 44.85C71.1809 44.766 71.2829 44.724 71.4029 44.724C71.5229 44.724 71.6229 44.766 71.7029 44.85C71.7829 44.93 71.8229 45.03 71.8229 45.15C71.8229 45.27 71.7829 45.37 71.7029 45.45C71.6229 45.534 71.5229 45.576 71.4029 45.576ZM72.4639 45.09L74.1679 43.38C74.4719 43.072 74.6899 42.814 74.8219 42.606C74.9539 42.394 75.0199 42.202 75.0199 42.03C75.0199 41.75 74.9319 41.532 74.7559 41.376C74.5799 41.216 74.3399 41.136 74.0359 41.136C73.8279 41.136 73.6479 41.184 73.4959 41.28C73.3479 41.372 73.2339 41.496 73.1539 41.652C73.0779 41.808 73.0399 41.978 73.0399 42.162H72.4099C72.4099 41.87 72.4759 41.604 72.6079 41.364C72.7439 41.124 72.9359 40.934 73.1839 40.794C73.4319 40.65 73.7179 40.578 74.0419 40.578C74.3619 40.578 74.6419 40.638 74.8819 40.758C75.1259 40.878 75.3139 41.048 75.4459 41.268C75.5779 41.488 75.6439 41.74 75.6439 42.024C75.6439 42.276 75.5679 42.526 75.4159 42.774C75.2639 43.022 75.0019 43.336 74.6299 43.716L73.3699 44.952H75.8059V45.498H72.4639V45.09Z" fill="#888888"/>
<path d="M120.536 66.456C120.696 66.38 120.868 66.342 121.052 66.342C121.364 66.342 121.648 66.41 121.904 66.546C122.164 66.682 122.368 66.872 122.516 67.116C122.668 67.36 122.744 67.642 122.744 67.962C122.744 68.286 122.666 68.574 122.51 68.826C122.358 69.074 122.15 69.266 121.886 69.402C121.622 69.538 121.328 69.606 121.004 69.606C120.68 69.606 120.384 69.538 120.116 69.402C119.852 69.266 119.642 69.074 119.486 68.826C119.334 68.574 119.258 68.286 119.258 67.962C119.258 67.726 119.296 67.506 119.372 67.302C119.448 67.098 119.566 66.878 119.726 66.642L121.028 64.692H121.748L120.536 66.456ZM121.004 69.06C121.228 69.06 121.424 69.012 121.592 68.916C121.764 68.82 121.896 68.69 121.988 68.526C122.08 68.358 122.126 68.172 122.126 67.968C122.126 67.76 122.08 67.574 121.988 67.41C121.896 67.242 121.764 67.11 121.592 67.014C121.424 66.918 121.228 66.87 121.004 66.87C120.776 66.87 120.576 66.918 120.404 67.014C120.236 67.11 120.106 67.242 120.014 67.41C119.922 67.578 119.876 67.764 119.876 67.968C119.876 68.172 119.922 68.358 120.014 68.526C120.106 68.69 120.236 68.82 120.404 68.916C120.576 69.012 120.776 69.06 121.004 69.06ZM125.487 65.244H122.919V64.692H126.213V65.112L124.197 69.498H123.531L125.487 65.244ZM126.465 69.576C126.345 69.576 126.243 69.534 126.159 69.45C126.079 69.37 126.039 69.27 126.039 69.15C126.039 69.03 126.079 68.93 126.159 68.85C126.243 68.766 126.345 68.724 126.465 68.724C126.585 68.724 126.685 68.766 126.765 68.85C126.845 68.93 126.885 69.03 126.885 69.15C126.885 69.27 126.845 69.37 126.765 69.45C126.685 69.534 126.585 69.576 126.465 69.576ZM129.695 68.412H127.271V67.878L129.551 64.692H130.295V67.878H131.081V68.412H130.295V69.498H129.695V68.412ZM129.695 67.878V65.382L127.919 67.878H129.695Z" fill="#888888"/>
<path d="M176.956 94.606C176.62 94.606 176.326 94.542 176.074 94.414C175.822 94.29 175.626 94.118 175.486 93.898C175.346 93.674 175.27 93.422 175.258 93.142H175.882C175.89 93.41 175.988 93.63 176.176 93.802C176.368 93.974 176.628 94.06 176.956 94.06C177.172 94.06 177.362 94.014 177.526 93.922C177.69 93.826 177.816 93.694 177.904 93.526C177.992 93.358 178.036 93.17 178.036 92.962C178.036 92.758 177.99 92.574 177.898 92.41C177.81 92.246 177.684 92.118 177.52 92.026C177.36 91.934 177.176 91.888 176.968 91.888C176.724 91.888 176.52 91.942 176.356 92.05C176.192 92.154 176.064 92.29 175.972 92.458H175.354L175.492 89.692H178.408V90.238H176.068L175.984 91.81C176.088 91.682 176.232 91.574 176.416 91.486C176.6 91.394 176.818 91.348 177.07 91.348C177.37 91.348 177.64 91.416 177.88 91.552C178.124 91.688 178.314 91.878 178.45 92.122C178.586 92.366 178.654 92.646 178.654 92.962C178.654 93.278 178.582 93.562 178.438 93.814C178.298 94.062 178.098 94.256 177.838 94.396C177.582 94.536 177.288 94.606 176.956 94.606ZM180.911 94.606C180.575 94.606 180.279 94.542 180.023 94.414C179.771 94.29 179.575 94.118 179.435 93.898C179.295 93.674 179.219 93.422 179.207 93.142H179.831C179.839 93.41 179.939 93.63 180.131 93.802C180.323 93.974 180.583 94.06 180.911 94.06C181.131 94.06 181.321 94.022 181.481 93.946C181.645 93.87 181.769 93.766 181.853 93.634C181.941 93.502 181.985 93.356 181.985 93.196C181.985 92.928 181.883 92.718 181.679 92.566C181.475 92.414 181.191 92.338 180.827 92.338H180.299V91.816H180.827C181.131 91.816 181.377 91.738 181.565 91.582C181.757 91.422 181.853 91.218 181.853 90.97C181.853 90.814 181.813 90.672 181.733 90.544C181.653 90.412 181.535 90.308 181.379 90.232C181.227 90.156 181.049 90.118 180.845 90.118C180.637 90.118 180.457 90.162 180.305 90.25C180.153 90.338 180.037 90.456 179.957 90.604C179.881 90.752 179.843 90.912 179.843 91.084H179.213C179.213 90.804 179.281 90.55 179.417 90.322C179.553 90.09 179.745 89.908 179.993 89.776C180.241 89.644 180.525 89.578 180.845 89.578C181.165 89.578 181.449 89.64 181.697 89.764C181.945 89.884 182.137 90.05 182.273 90.262C182.409 90.47 182.477 90.7 182.477 90.952C182.477 91.232 182.393 91.472 182.225 91.672C182.057 91.872 181.855 92 181.619 92.056C181.887 92.104 182.117 92.228 182.309 92.428C182.505 92.624 182.603 92.878 182.603 93.19C182.603 93.458 182.531 93.7 182.387 93.916C182.247 94.128 182.047 94.296 181.787 94.42C181.531 94.544 181.239 94.606 180.911 94.606ZM183.672 94.576C183.552 94.576 183.45 94.534 183.366 94.45C183.286 94.37 183.246 94.27 183.246 94.15C183.246 94.03 183.286 93.93 183.366 93.85C183.45 93.766 183.552 93.724 183.672 93.724C183.792 93.724 183.892 93.766 183.972 93.85C184.052 93.93 184.092 94.03 184.092 94.15C184.092 94.27 184.052 94.37 183.972 94.45C183.892 94.534 183.792 94.576 183.672 94.576ZM187.205 90.244H184.637V89.692H187.931V90.112L185.915 94.498H185.249L187.205 90.244Z" fill="#888888"/>
<path d="M251.962 117.606C251.626 117.606 251.33 117.542 251.074 117.414C250.822 117.29 250.626 117.118 250.486 116.898C250.346 116.674 250.27 116.422 250.258 116.142H250.882C250.89 116.41 250.99 116.63 251.182 116.802C251.374 116.974 251.634 117.06 251.962 117.06C252.182 117.06 252.372 117.022 252.532 116.946C252.696 116.87 252.82 116.766 252.904 116.634C252.992 116.502 253.036 116.356 253.036 116.196C253.036 115.928 252.934 115.718 252.73 115.566C252.526 115.414 252.242 115.338 251.878 115.338H251.35V114.816H251.878C252.182 114.816 252.428 114.738 252.616 114.582C252.808 114.422 252.904 114.218 252.904 113.97C252.904 113.814 252.864 113.672 252.784 113.544C252.704 113.412 252.586 113.308 252.43 113.232C252.278 113.156 252.1 113.118 251.896 113.118C251.688 113.118 251.508 113.162 251.356 113.25C251.204 113.338 251.088 113.456 251.008 113.604C250.932 113.752 250.894 113.912 250.894 114.084H250.264C250.264 113.804 250.332 113.55 250.468 113.322C250.604 113.09 250.796 112.908 251.044 112.776C251.292 112.644 251.576 112.578 251.896 112.578C252.216 112.578 252.5 112.64 252.748 112.764C252.996 112.884 253.188 113.05 253.324 113.262C253.46 113.47 253.528 113.7 253.528 113.952C253.528 114.232 253.444 114.472 253.276 114.672C253.108 114.872 252.906 115 252.67 115.056C252.938 115.104 253.168 115.228 253.36 115.428C253.556 115.624 253.654 115.878 253.654 116.19C253.654 116.458 253.582 116.7 253.438 116.916C253.298 117.128 253.098 117.296 252.838 117.42C252.582 117.544 252.29 117.606 251.962 117.606ZM255.911 117.606C255.575 117.606 255.279 117.542 255.023 117.414C254.771 117.29 254.575 117.118 254.435 116.898C254.295 116.674 254.219 116.422 254.207 116.142H254.831C254.839 116.41 254.939 116.63 255.131 116.802C255.323 116.974 255.583 117.06 255.911 117.06C256.131 117.06 256.321 117.022 256.481 116.946C256.645 116.87 256.769 116.766 256.853 116.634C256.941 116.502 256.985 116.356 256.985 116.196C256.985 115.928 256.883 115.718 256.679 115.566C256.475 115.414 256.191 115.338 255.827 115.338H255.299V114.816H255.827C256.131 114.816 256.377 114.738 256.565 114.582C256.757 114.422 256.853 114.218 256.853 113.97C256.853 113.814 256.813 113.672 256.733 113.544C256.653 113.412 256.535 113.308 256.379 113.232C256.227 113.156 256.049 113.118 255.845 113.118C255.637 113.118 255.457 113.162 255.305 113.25C255.153 113.338 255.037 113.456 254.957 113.604C254.881 113.752 254.843 113.912 254.843 114.084H254.213C254.213 113.804 254.281 113.55 254.417 113.322C254.553 113.09 254.745 112.908 254.993 112.776C255.241 112.644 255.525 112.578 255.845 112.578C256.165 112.578 256.449 112.64 256.697 112.764C256.945 112.884 257.137 113.05 257.273 113.262C257.409 113.47 257.477 113.7 257.477 113.952C257.477 114.232 257.393 114.472 257.225 114.672C257.057 114.872 256.855 115 256.619 115.056C256.887 115.104 257.117 115.228 257.309 115.428C257.505 115.624 257.603 115.878 257.603 116.19C257.603 116.458 257.531 116.7 257.387 116.916C257.247 117.128 257.047 117.296 256.787 117.42C256.531 117.544 256.239 117.606 255.911 117.606ZM258.672 117.576C258.552 117.576 258.45 117.534 258.366 117.45C258.286 117.37 258.246 117.27 258.246 117.15C258.246 117.03 258.286 116.93 258.366 116.85C258.45 116.766 258.552 116.724 258.672 116.724C258.792 116.724 258.892 116.766 258.972 116.85C259.052 116.93 259.092 117.03 259.092 117.15C259.092 117.27 259.052 117.37 258.972 117.45C258.892 117.534 258.792 117.576 258.672 117.576ZM259.733 117.09L261.437 115.38C261.741 115.072 261.959 114.814 262.091 114.606C262.223 114.394 262.289 114.202 262.289 114.03C262.289 113.75 262.201 113.532 262.025 113.376C261.849 113.216 261.609 113.136 261.305 113.136C261.097 113.136 260.917 113.184 260.765 113.28C260.617 113.372 260.503 113.496 260.423 113.652C260.347 113.808 260.309 113.978 260.309 114.162H259.679C259.679 113.87 259.745 113.604 259.877 113.364C260.013 113.124 260.205 112.934 260.453 112.794C260.701 112.65 260.987 112.578 261.311 112.578C261.631 112.578 261.911 112.638 262.151 112.758C262.395 112.878 262.583 113.048 262.715 113.268C262.847 113.488 262.913 113.74 262.913 114.024C262.913 114.276 262.837 114.526 262.685 114.774C262.533 115.022 262.271 115.336 261.899 115.716L260.639 116.952H263.075V117.498H259.733V117.09Z" fill="#888888"/>
<path d="M302.962 110.606C302.626 110.606 302.33 110.542 302.074 110.414C301.822 110.29 301.626 110.118 301.486 109.898C301.346 109.674 301.27 109.422 301.258 109.142H301.882C301.89 109.41 301.99 109.63 302.182 109.802C302.374 109.974 302.634 110.06 302.962 110.06C303.182 110.06 303.372 110.022 303.532 109.946C303.696 109.87 303.82 109.766 303.904 109.634C303.992 109.502 304.036 109.356 304.036 109.196C304.036 108.928 303.934 108.718 303.73 108.566C303.526 108.414 303.242 108.338 302.878 108.338H302.35V107.816H302.878C303.182 107.816 303.428 107.738 303.616 107.582C303.808 107.422 303.904 107.218 303.904 106.97C303.904 106.814 303.864 106.672 303.784 106.544C303.704 106.412 303.586 106.308 303.43 106.232C303.278 106.156 303.1 106.118 302.896 106.118C302.688 106.118 302.508 106.162 302.356 106.25C302.204 106.338 302.088 106.456 302.008 106.604C301.932 106.752 301.894 106.912 301.894 107.084H301.264C301.264 106.804 301.332 106.55 301.468 106.322C301.604 106.09 301.796 105.908 302.044 105.776C302.292 105.644 302.576 105.578 302.896 105.578C303.216 105.578 303.5 105.64 303.748 105.764C303.996 105.884 304.188 106.05 304.324 106.262C304.46 106.47 304.528 106.7 304.528 106.952C304.528 107.232 304.444 107.472 304.276 107.672C304.108 107.872 303.906 108 303.67 108.056C303.938 108.104 304.168 108.228 304.36 108.428C304.556 108.624 304.654 108.878 304.654 109.19C304.654 109.458 304.582 109.7 304.438 109.916C304.298 110.128 304.098 110.296 303.838 110.42C303.582 110.544 303.29 110.606 302.962 110.606ZM307.031 110.606C306.687 110.606 306.381 110.512 306.113 110.324C305.845 110.136 305.635 109.854 305.483 109.478C305.331 109.098 305.255 108.636 305.255 108.092C305.255 107.548 305.331 107.088 305.483 106.712C305.635 106.332 305.845 106.048 306.113 105.86C306.381 105.672 306.687 105.578 307.031 105.578C307.375 105.578 307.679 105.672 307.943 105.86C308.211 106.048 308.421 106.332 308.573 106.712C308.725 107.088 308.801 107.548 308.801 108.092C308.801 108.636 308.725 109.098 308.573 109.478C308.421 109.854 308.211 110.136 307.943 110.324C307.679 110.512 307.375 110.606 307.031 110.606ZM307.031 110.048C307.251 110.048 307.449 109.974 307.625 109.826C307.801 109.678 307.939 109.458 308.039 109.166C308.143 108.874 308.195 108.516 308.195 108.092C308.195 107.672 308.143 107.316 308.039 107.024C307.939 106.728 307.801 106.506 307.625 106.358C307.449 106.21 307.251 106.136 307.031 106.136C306.807 106.136 306.607 106.21 306.431 106.358C306.255 106.506 306.115 106.728 306.011 107.024C305.911 107.316 305.861 107.672 305.861 108.092C305.861 108.516 305.911 108.874 306.011 109.166C306.115 109.458 306.255 109.678 306.431 109.826C306.607 109.974 306.807 110.048 307.031 110.048ZM309.526 110.576C309.406 110.576 309.304 110.534 309.22 110.45C309.14 110.37 309.1 110.27 309.1 110.15C309.1 110.03 309.14 109.93 309.22 109.85C309.304 109.766 309.406 109.724 309.526 109.724C309.646 109.724 309.746 109.766 309.826 109.85C309.906 109.93 309.946 110.03 309.946 110.15C309.946 110.27 309.906 110.37 309.826 110.45C309.746 110.534 309.646 110.576 309.526 110.576ZM311.108 106.244H310.112V105.692H311.738V110.498H311.108V106.244Z" fill="#888888"/>
</svg>
