<svg width="262" height="141" viewBox="0 0 262 141" fill="none" xmlns="http://www.w3.org/2000/svg">
<rect y="9" width="22" height="123" fill="#FFE7A8"/>
<rect x="48" y="28" width="22" height="104" fill="#FFE7A8"/>
<rect x="96" y="43" width="22" height="89" fill="#FFE7A8"/>
<rect x="144" y="55" width="22" height="77" fill="#FFE7A8"/>
<rect x="192" y="77" width="22" height="55" fill="#FFE7A8"/>
<rect x="240" y="100" width="22" height="32" fill="#FFE7A8"/>
<path d="M4.294 139.09L5.998 137.38C6.302 137.072 6.52 136.814 6.652 136.606C6.784 136.394 6.85 136.202 6.85 136.03C6.85 135.75 6.762 135.532 6.586 135.376C6.41 135.216 6.17 135.136 5.866 135.136C5.658 135.136 5.478 135.184 5.326 135.28C5.178 135.372 5.064 135.496 4.984 135.652C4.908 135.808 4.87 135.978 4.87 136.162H4.24C4.24 135.87 4.306 135.604 4.438 135.364C4.574 135.124 4.766 134.934 5.014 134.794C5.262 134.65 5.548 134.578 5.872 134.578C6.192 134.578 6.472 134.638 6.712 134.758C6.956 134.878 7.144 135.048 7.276 135.268C7.408 135.488 7.474 135.74 7.474 136.024C7.474 136.276 7.398 136.526 7.246 136.774C7.094 137.022 6.832 137.336 6.46 137.716L5.2 138.952H7.636V139.498H4.294V139.09ZM10.0195 139.606C9.6755 139.606 9.3695 139.512 9.1015 139.324C8.8335 139.136 8.6235 138.854 8.4715 138.478C8.3195 138.098 8.2435 137.636 8.2435 137.092C8.2435 136.548 8.3195 136.088 8.4715 135.712C8.6235 135.332 8.8335 135.048 9.1015 134.86C9.3695 134.672 9.6755 134.578 10.0195 134.578C10.3635 134.578 10.6675 134.672 10.9315 134.86C11.1995 135.048 11.4095 135.332 11.5615 135.712C11.7135 136.088 11.7895 136.548 11.7895 137.092C11.7895 137.636 11.7135 138.098 11.5615 138.478C11.4095 138.854 11.1995 139.136 10.9315 139.324C10.6675 139.512 10.3635 139.606 10.0195 139.606ZM10.0195 139.048C10.2395 139.048 10.4375 138.974 10.6135 138.826C10.7895 138.678 10.9275 138.458 11.0275 138.166C11.1315 137.874 11.1835 137.516 11.1835 137.092C11.1835 136.672 11.1315 136.316 11.0275 136.024C10.9275 135.728 10.7895 135.506 10.6135 135.358C10.4375 135.21 10.2395 135.136 10.0195 135.136C9.7955 135.136 9.5955 135.21 9.4195 135.358C9.2435 135.506 9.1035 135.728 8.9995 136.024C8.8995 136.316 8.8495 136.672 8.8495 137.092C8.8495 137.516 8.8995 137.874 8.9995 138.166C9.1035 138.458 9.2435 138.678 9.4195 138.826C9.5955 138.974 9.7955 139.048 10.0195 139.048ZM13.3637 135.244H12.3677V134.692H13.9937V139.498H13.3637V135.244ZM16.0765 135.244H15.0805V134.692H16.7065V139.498H16.0765V135.244Z" fill="#666666"/>
<path d="M52.294 139.09L53.998 137.38C54.302 137.072 54.52 136.814 54.652 136.606C54.784 136.394 54.85 136.202 54.85 136.03C54.85 135.75 54.762 135.532 54.586 135.376C54.41 135.216 54.17 135.136 53.866 135.136C53.658 135.136 53.478 135.184 53.326 135.28C53.178 135.372 53.064 135.496 52.984 135.652C52.908 135.808 52.87 135.978 52.87 136.162H52.24C52.24 135.87 52.306 135.604 52.438 135.364C52.574 135.124 52.766 134.934 53.014 134.794C53.262 134.65 53.548 134.578 53.872 134.578C54.192 134.578 54.472 134.638 54.712 134.758C54.956 134.878 55.144 135.048 55.276 135.268C55.408 135.488 55.474 135.74 55.474 136.024C55.474 136.276 55.398 136.526 55.246 136.774C55.094 137.022 54.832 137.336 54.46 137.716L53.2 138.952H55.636V139.498H52.294V139.09ZM58.0195 139.606C57.6755 139.606 57.3695 139.512 57.1015 139.324C56.8335 139.136 56.6235 138.854 56.4715 138.478C56.3195 138.098 56.2435 137.636 56.2435 137.092C56.2435 136.548 56.3195 136.088 56.4715 135.712C56.6235 135.332 56.8335 135.048 57.1015 134.86C57.3695 134.672 57.6755 134.578 58.0195 134.578C58.3635 134.578 58.6675 134.672 58.9315 134.86C59.1995 135.048 59.4095 135.332 59.5615 135.712C59.7135 136.088 59.7895 136.548 59.7895 137.092C59.7895 137.636 59.7135 138.098 59.5615 138.478C59.4095 138.854 59.1995 139.136 58.9315 139.324C58.6675 139.512 58.3635 139.606 58.0195 139.606ZM58.0195 139.048C58.2395 139.048 58.4375 138.974 58.6135 138.826C58.7895 138.678 58.9275 138.458 59.0275 138.166C59.1315 137.874 59.1835 137.516 59.1835 137.092C59.1835 136.672 59.1315 136.316 59.0275 136.024C58.9275 135.728 58.7895 135.506 58.6135 135.358C58.4375 135.21 58.2395 135.136 58.0195 135.136C57.7955 135.136 57.5955 135.21 57.4195 135.358C57.2435 135.506 57.1035 135.728 56.9995 136.024C56.8995 136.316 56.8495 136.672 56.8495 137.092C56.8495 137.516 56.8995 137.874 56.9995 138.166C57.1035 138.458 57.2435 138.678 57.4195 138.826C57.5955 138.974 57.7955 139.048 58.0195 139.048ZM61.3637 135.244H60.3677V134.692H61.9937V139.498H61.3637V135.244ZM64.7725 139.606C64.4365 139.606 64.1405 139.542 63.8845 139.414C63.6325 139.29 63.4365 139.118 63.2965 138.898C63.1565 138.674 63.0805 138.422 63.0685 138.142H63.6925C63.7005 138.41 63.8005 138.63 63.9925 138.802C64.1845 138.974 64.4445 139.06 64.7725 139.06C64.9925 139.06 65.1825 139.022 65.3425 138.946C65.5065 138.87 65.6305 138.766 65.7145 138.634C65.8025 138.502 65.8465 138.356 65.8465 138.196C65.8465 137.928 65.7445 137.718 65.5405 137.566C65.3365 137.414 65.0525 137.338 64.6885 137.338H64.1605V136.816H64.6885C64.9925 136.816 65.2385 136.738 65.4265 136.582C65.6185 136.422 65.7145 136.218 65.7145 135.97C65.7145 135.814 65.6745 135.672 65.5945 135.544C65.5145 135.412 65.3965 135.308 65.2405 135.232C65.0885 135.156 64.9105 135.118 64.7065 135.118C64.4985 135.118 64.3185 135.162 64.1665 135.25C64.0145 135.338 63.8985 135.456 63.8185 135.604C63.7425 135.752 63.7045 135.912 63.7045 136.084H63.0745C63.0745 135.804 63.1425 135.55 63.2785 135.322C63.4145 135.09 63.6065 134.908 63.8545 134.776C64.1025 134.644 64.3865 134.578 64.7065 134.578C65.0265 134.578 65.3105 134.64 65.5585 134.764C65.8065 134.884 65.9985 135.05 66.1345 135.262C66.2705 135.47 66.3385 135.7 66.3385 135.952C66.3385 136.232 66.2545 136.472 66.0865 136.672C65.9185 136.872 65.7165 137 65.4805 137.056C65.7485 137.104 65.9785 137.228 66.1705 137.428C66.3665 137.624 66.4645 137.878 66.4645 138.19C66.4645 138.458 66.3925 138.7 66.2485 138.916C66.1085 139.128 65.9085 139.296 65.6485 139.42C65.3925 139.544 65.1005 139.606 64.7725 139.606Z" fill="#666666"/>
<path d="M100.294 139.09L101.998 137.38C102.302 137.072 102.52 136.814 102.652 136.606C102.784 136.394 102.85 136.202 102.85 136.03C102.85 135.75 102.762 135.532 102.586 135.376C102.41 135.216 102.17 135.136 101.866 135.136C101.658 135.136 101.478 135.184 101.326 135.28C101.178 135.372 101.064 135.496 100.984 135.652C100.908 135.808 100.87 135.978 100.87 136.162H100.24C100.24 135.87 100.306 135.604 100.438 135.364C100.574 135.124 100.766 134.934 101.014 134.794C101.262 134.65 101.548 134.578 101.872 134.578C102.192 134.578 102.472 134.638 102.712 134.758C102.956 134.878 103.144 135.048 103.276 135.268C103.408 135.488 103.474 135.74 103.474 136.024C103.474 136.276 103.398 136.526 103.246 136.774C103.094 137.022 102.832 137.336 102.46 137.716L101.2 138.952H103.636V139.498H100.294V139.09ZM106.02 139.606C105.676 139.606 105.37 139.512 105.102 139.324C104.834 139.136 104.624 138.854 104.472 138.478C104.32 138.098 104.244 137.636 104.244 137.092C104.244 136.548 104.32 136.088 104.472 135.712C104.624 135.332 104.834 135.048 105.102 134.86C105.37 134.672 105.676 134.578 106.02 134.578C106.364 134.578 106.668 134.672 106.932 134.86C107.2 135.048 107.41 135.332 107.562 135.712C107.714 136.088 107.79 136.548 107.79 137.092C107.79 137.636 107.714 138.098 107.562 138.478C107.41 138.854 107.2 139.136 106.932 139.324C106.668 139.512 106.364 139.606 106.02 139.606ZM106.02 139.048C106.24 139.048 106.438 138.974 106.614 138.826C106.79 138.678 106.928 138.458 107.028 138.166C107.132 137.874 107.184 137.516 107.184 137.092C107.184 136.672 107.132 136.316 107.028 136.024C106.928 135.728 106.79 135.506 106.614 135.358C106.438 135.21 106.24 135.136 106.02 135.136C105.796 135.136 105.596 135.21 105.42 135.358C105.244 135.506 105.104 135.728 105 136.024C104.9 136.316 104.85 136.672 104.85 137.092C104.85 137.516 104.9 137.874 105 138.166C105.104 138.458 105.244 138.678 105.42 138.826C105.596 138.974 105.796 139.048 106.02 139.048ZM109.364 135.244H108.368V134.692H109.994V139.498H109.364V135.244ZM112.767 139.606C112.431 139.606 112.137 139.542 111.885 139.414C111.633 139.29 111.437 139.118 111.297 138.898C111.157 138.674 111.081 138.422 111.069 138.142H111.693C111.701 138.41 111.799 138.63 111.987 138.802C112.179 138.974 112.439 139.06 112.767 139.06C112.983 139.06 113.173 139.014 113.337 138.922C113.501 138.826 113.627 138.694 113.715 138.526C113.803 138.358 113.847 138.17 113.847 137.962C113.847 137.758 113.801 137.574 113.709 137.41C113.621 137.246 113.495 137.118 113.331 137.026C113.171 136.934 112.987 136.888 112.779 136.888C112.535 136.888 112.331 136.942 112.167 137.05C112.003 137.154 111.875 137.29 111.783 137.458H111.165L111.303 134.692H114.219V135.238H111.879L111.795 136.81C111.899 136.682 112.043 136.574 112.227 136.486C112.411 136.394 112.629 136.348 112.881 136.348C113.181 136.348 113.451 136.416 113.691 136.552C113.935 136.688 114.125 136.878 114.261 137.122C114.397 137.366 114.465 137.646 114.465 137.962C114.465 138.278 114.393 138.562 114.249 138.814C114.109 139.062 113.909 139.256 113.649 139.396C113.393 139.536 113.099 139.606 112.767 139.606Z" fill="#666666"/>
<path d="M148.294 139.09L149.998 137.38C150.302 137.072 150.52 136.814 150.652 136.606C150.784 136.394 150.85 136.202 150.85 136.03C150.85 135.75 150.762 135.532 150.586 135.376C150.41 135.216 150.17 135.136 149.866 135.136C149.658 135.136 149.478 135.184 149.326 135.28C149.178 135.372 149.064 135.496 148.984 135.652C148.908 135.808 148.87 135.978 148.87 136.162H148.24C148.24 135.87 148.306 135.604 148.438 135.364C148.574 135.124 148.766 134.934 149.014 134.794C149.262 134.65 149.548 134.578 149.872 134.578C150.192 134.578 150.472 134.638 150.712 134.758C150.956 134.878 151.144 135.048 151.276 135.268C151.408 135.488 151.474 135.74 151.474 136.024C151.474 136.276 151.398 136.526 151.246 136.774C151.094 137.022 150.832 137.336 150.46 137.716L149.2 138.952H151.636V139.498H148.294V139.09ZM154.02 139.606C153.676 139.606 153.37 139.512 153.102 139.324C152.834 139.136 152.624 138.854 152.472 138.478C152.32 138.098 152.244 137.636 152.244 137.092C152.244 136.548 152.32 136.088 152.472 135.712C152.624 135.332 152.834 135.048 153.102 134.86C153.37 134.672 153.676 134.578 154.02 134.578C154.364 134.578 154.668 134.672 154.932 134.86C155.2 135.048 155.41 135.332 155.562 135.712C155.714 136.088 155.79 136.548 155.79 137.092C155.79 137.636 155.714 138.098 155.562 138.478C155.41 138.854 155.2 139.136 154.932 139.324C154.668 139.512 154.364 139.606 154.02 139.606ZM154.02 139.048C154.24 139.048 154.438 138.974 154.614 138.826C154.79 138.678 154.928 138.458 155.028 138.166C155.132 137.874 155.184 137.516 155.184 137.092C155.184 136.672 155.132 136.316 155.028 136.024C154.928 135.728 154.79 135.506 154.614 135.358C154.438 135.21 154.24 135.136 154.02 135.136C153.796 135.136 153.596 135.21 153.42 135.358C153.244 135.506 153.104 135.728 153 136.024C152.9 136.316 152.85 136.672 152.85 137.092C152.85 137.516 152.9 137.874 153 138.166C153.104 138.458 153.244 138.678 153.42 138.826C153.596 138.974 153.796 139.048 154.02 139.048ZM157.364 135.244H156.368V134.692H157.994V139.498H157.364V135.244ZM161.477 135.244H158.909V134.692H162.203V135.112L160.187 139.498H159.521L161.477 135.244Z" fill="#666666"/>
<path d="M196.294 139.09L197.998 137.38C198.302 137.072 198.52 136.814 198.652 136.606C198.784 136.394 198.85 136.202 198.85 136.03C198.85 135.75 198.762 135.532 198.586 135.376C198.41 135.216 198.17 135.136 197.866 135.136C197.658 135.136 197.478 135.184 197.326 135.28C197.178 135.372 197.064 135.496 196.984 135.652C196.908 135.808 196.87 135.978 196.87 136.162H196.24C196.24 135.87 196.306 135.604 196.438 135.364C196.574 135.124 196.766 134.934 197.014 134.794C197.262 134.65 197.548 134.578 197.872 134.578C198.192 134.578 198.472 134.638 198.712 134.758C198.956 134.878 199.144 135.048 199.276 135.268C199.408 135.488 199.474 135.74 199.474 136.024C199.474 136.276 199.398 136.526 199.246 136.774C199.094 137.022 198.832 137.336 198.46 137.716L197.2 138.952H199.636V139.498H196.294V139.09ZM202.02 139.606C201.676 139.606 201.37 139.512 201.102 139.324C200.834 139.136 200.624 138.854 200.472 138.478C200.32 138.098 200.244 137.636 200.244 137.092C200.244 136.548 200.32 136.088 200.472 135.712C200.624 135.332 200.834 135.048 201.102 134.86C201.37 134.672 201.676 134.578 202.02 134.578C202.364 134.578 202.668 134.672 202.932 134.86C203.2 135.048 203.41 135.332 203.562 135.712C203.714 136.088 203.79 136.548 203.79 137.092C203.79 137.636 203.714 138.098 203.562 138.478C203.41 138.854 203.2 139.136 202.932 139.324C202.668 139.512 202.364 139.606 202.02 139.606ZM202.02 139.048C202.24 139.048 202.438 138.974 202.614 138.826C202.79 138.678 202.928 138.458 203.028 138.166C203.132 137.874 203.184 137.516 203.184 137.092C203.184 136.672 203.132 136.316 203.028 136.024C202.928 135.728 202.79 135.506 202.614 135.358C202.438 135.21 202.24 135.136 202.02 135.136C201.796 135.136 201.596 135.21 201.42 135.358C201.244 135.506 201.104 135.728 201 136.024C200.9 136.316 200.85 136.672 200.85 137.092C200.85 137.516 200.9 137.874 201 138.166C201.104 138.458 201.244 138.678 201.42 138.826C201.596 138.974 201.796 139.048 202.02 139.048ZM205.364 135.244H204.368V134.692H205.994V139.498H205.364V135.244ZM209.199 137.728C209.039 137.804 208.867 137.842 208.683 137.842C208.371 137.842 208.085 137.774 207.825 137.638C207.569 137.502 207.365 137.312 207.213 137.068C207.065 136.824 206.991 136.542 206.991 136.222C206.991 135.898 207.067 135.612 207.219 135.364C207.375 135.112 207.585 134.918 207.849 134.782C208.113 134.646 208.407 134.578 208.731 134.578C209.055 134.578 209.349 134.646 209.613 134.782C209.881 134.918 210.091 135.112 210.243 135.364C210.399 135.612 210.477 135.898 210.477 136.222C210.477 136.454 210.437 136.674 210.357 136.882C210.281 137.086 210.165 137.306 210.009 137.542L208.707 139.492H207.987L209.199 137.728ZM208.731 135.124C208.507 135.124 208.309 135.172 208.137 135.268C207.969 135.364 207.839 135.496 207.747 135.664C207.655 135.828 207.609 136.012 207.609 136.216C207.609 136.424 207.655 136.612 207.747 136.78C207.839 136.944 207.969 137.074 208.137 137.17C208.309 137.266 208.507 137.314 208.731 137.314C208.959 137.314 209.157 137.266 209.325 137.17C209.497 137.074 209.629 136.942 209.721 136.774C209.813 136.606 209.859 136.42 209.859 136.216C209.859 136.012 209.813 135.828 209.721 135.664C209.629 135.496 209.497 135.364 209.325 135.268C209.157 135.172 208.959 135.124 208.731 135.124Z" fill="#666666"/>
<path d="M244.294 139.09L245.998 137.38C246.302 137.072 246.52 136.814 246.652 136.606C246.784 136.394 246.85 136.202 246.85 136.03C246.85 135.75 246.762 135.532 246.586 135.376C246.41 135.216 246.17 135.136 245.866 135.136C245.658 135.136 245.478 135.184 245.326 135.28C245.178 135.372 245.064 135.496 244.984 135.652C244.908 135.808 244.87 135.978 244.87 136.162H244.24C244.24 135.87 244.306 135.604 244.438 135.364C244.574 135.124 244.766 134.934 245.014 134.794C245.262 134.65 245.548 134.578 245.872 134.578C246.192 134.578 246.472 134.638 246.712 134.758C246.956 134.878 247.144 135.048 247.276 135.268C247.408 135.488 247.474 135.74 247.474 136.024C247.474 136.276 247.398 136.526 247.246 136.774C247.094 137.022 246.832 137.336 246.46 137.716L245.2 138.952H247.636V139.498H244.294V139.09ZM250.02 139.606C249.676 139.606 249.37 139.512 249.102 139.324C248.834 139.136 248.624 138.854 248.472 138.478C248.32 138.098 248.244 137.636 248.244 137.092C248.244 136.548 248.32 136.088 248.472 135.712C248.624 135.332 248.834 135.048 249.102 134.86C249.37 134.672 249.676 134.578 250.02 134.578C250.364 134.578 250.668 134.672 250.932 134.86C251.2 135.048 251.41 135.332 251.562 135.712C251.714 136.088 251.79 136.548 251.79 137.092C251.79 137.636 251.714 138.098 251.562 138.478C251.41 138.854 251.2 139.136 250.932 139.324C250.668 139.512 250.364 139.606 250.02 139.606ZM250.02 139.048C250.24 139.048 250.438 138.974 250.614 138.826C250.79 138.678 250.928 138.458 251.028 138.166C251.132 137.874 251.184 137.516 251.184 137.092C251.184 136.672 251.132 136.316 251.028 136.024C250.928 135.728 250.79 135.506 250.614 135.358C250.438 135.21 250.24 135.136 250.02 135.136C249.796 135.136 249.596 135.21 249.42 135.358C249.244 135.506 249.104 135.728 249 136.024C248.9 136.316 248.85 136.672 248.85 137.092C248.85 137.516 248.9 137.874 249 138.166C249.104 138.458 249.244 138.678 249.42 138.826C249.596 138.974 249.796 139.048 250.02 139.048ZM252.392 139.09L254.096 137.38C254.4 137.072 254.618 136.814 254.75 136.606C254.882 136.394 254.948 136.202 254.948 136.03C254.948 135.75 254.86 135.532 254.684 135.376C254.508 135.216 254.268 135.136 253.964 135.136C253.756 135.136 253.576 135.184 253.424 135.28C253.276 135.372 253.162 135.496 253.082 135.652C253.006 135.808 252.968 135.978 252.968 136.162H252.338C252.338 135.87 252.404 135.604 252.536 135.364C252.672 135.124 252.864 134.934 253.112 134.794C253.36 134.65 253.646 134.578 253.97 134.578C254.29 134.578 254.57 134.638 254.81 134.758C255.054 134.878 255.242 135.048 255.374 135.268C255.506 135.488 255.572 135.74 255.572 136.024C255.572 136.276 255.496 136.526 255.344 136.774C255.192 137.022 254.93 137.336 254.558 137.716L253.298 138.952H255.734V139.498H252.392V139.09ZM257.997 139.606C257.661 139.606 257.365 139.542 257.109 139.414C256.857 139.29 256.661 139.118 256.521 138.898C256.381 138.674 256.305 138.422 256.293 138.142H256.917C256.925 138.41 257.025 138.63 257.217 138.802C257.409 138.974 257.669 139.06 257.997 139.06C258.217 139.06 258.407 139.022 258.567 138.946C258.731 138.87 258.855 138.766 258.939 138.634C259.027 138.502 259.071 138.356 259.071 138.196C259.071 137.928 258.969 137.718 258.765 137.566C258.561 137.414 258.277 137.338 257.913 137.338H257.385V136.816H257.913C258.217 136.816 258.463 136.738 258.651 136.582C258.843 136.422 258.939 136.218 258.939 135.97C258.939 135.814 258.899 135.672 258.819 135.544C258.739 135.412 258.621 135.308 258.465 135.232C258.313 135.156 258.135 135.118 257.931 135.118C257.723 135.118 257.543 135.162 257.391 135.25C257.239 135.338 257.123 135.456 257.043 135.604C256.967 135.752 256.929 135.912 256.929 136.084H256.299C256.299 135.804 256.367 135.55 256.503 135.322C256.639 135.09 256.831 134.908 257.079 134.776C257.327 134.644 257.611 134.578 257.931 134.578C258.251 134.578 258.535 134.64 258.783 134.764C259.031 134.884 259.223 135.05 259.359 135.262C259.495 135.47 259.563 135.7 259.563 135.952C259.563 136.232 259.479 136.472 259.311 136.672C259.143 136.872 258.941 137 258.705 137.056C258.973 137.104 259.203 137.228 259.395 137.428C259.591 137.624 259.689 137.878 259.689 138.19C259.689 138.458 259.617 138.7 259.473 138.916C259.333 139.128 259.133 139.296 258.873 139.42C258.617 139.544 258.325 139.606 257.997 139.606Z" fill="#666666"/>
<path d="M5.266 1.244H4.27V0.692H5.896V5.498H5.266V1.244ZM8.68689 5.606C8.35489 5.606 8.05889 5.548 7.79889 5.432C7.54289 5.316 7.34289 5.154 7.19889 4.946C7.05489 4.738 6.98289 4.502 6.98289 4.238C6.98289 4.01 7.03289 3.81 7.13289 3.638C7.23689 3.466 7.36489 3.328 7.51689 3.224C7.67289 3.116 7.83089 3.044 7.99089 3.008C7.85489 2.968 7.72289 2.898 7.59489 2.798C7.46689 2.694 7.36089 2.566 7.27689 2.414C7.19289 2.258 7.15089 2.084 7.15089 1.892C7.15089 1.652 7.21489 1.432 7.34289 1.232C7.47489 1.032 7.65689 0.874 7.88889 0.758C8.12089 0.638 8.38689 0.578 8.68689 0.578C8.98289 0.578 9.24689 0.638 9.47889 0.758C9.71089 0.874 9.89089 1.034 10.0189 1.238C10.1509 1.438 10.2169 1.656 10.2169 1.892C10.2169 2.084 10.1749 2.258 10.0909 2.414C10.0069 2.566 9.90089 2.694 9.77289 2.798C9.64489 2.898 9.51289 2.968 9.37689 3.008C9.53689 3.044 9.69289 3.116 9.84489 3.224C10.0009 3.328 10.1289 3.466 10.2289 3.638C10.3329 3.81 10.3849 4.01 10.3849 4.238C10.3849 4.502 10.3129 4.738 10.1689 4.946C10.0249 5.154 9.82289 5.316 9.56289 5.432C9.30689 5.548 9.01489 5.606 8.68689 5.606ZM8.68689 2.726C8.86689 2.726 9.02689 2.69 9.16689 2.618C9.30689 2.546 9.41689 2.448 9.49689 2.324C9.57689 2.2 9.61689 2.062 9.61689 1.91C9.61689 1.762 9.57689 1.628 9.49689 1.508C9.42089 1.384 9.31289 1.286 9.17289 1.214C9.03289 1.142 8.87089 1.106 8.68689 1.106C8.41089 1.106 8.18689 1.182 8.01489 1.334C7.84289 1.482 7.75689 1.67 7.75689 1.898C7.75689 2.05 7.79689 2.19 7.87689 2.318C7.95689 2.442 8.06689 2.542 8.20689 2.618C8.34689 2.69 8.50689 2.726 8.68689 2.726ZM8.68689 5.078C8.90289 5.078 9.09289 5.04 9.25689 4.964C9.42089 4.888 9.54689 4.784 9.63489 4.652C9.72689 4.516 9.77289 4.366 9.77289 4.202C9.77289 4.034 9.72489 3.882 9.62889 3.746C9.53689 3.61 9.40689 3.504 9.23889 3.428C9.07489 3.348 8.89089 3.308 8.68689 3.308C8.47889 3.308 8.29089 3.348 8.12289 3.428C7.95889 3.504 7.82889 3.61 7.73289 3.746C7.64089 3.882 7.59489 4.034 7.59489 4.202C7.59489 4.366 7.63889 4.516 7.72689 4.652C7.81889 4.784 7.94689 4.888 8.11089 4.964C8.27889 5.04 8.47089 5.078 8.68689 5.078ZM11.3424 5.576C11.2224 5.576 11.1204 5.534 11.0364 5.45C10.9564 5.37 10.9164 5.27 10.9164 5.15C10.9164 5.03 10.9564 4.93 11.0364 4.85C11.1204 4.766 11.2224 4.724 11.3424 4.724C11.4624 4.724 11.5624 4.766 11.6424 4.85C11.7224 4.93 11.7624 5.03 11.7624 5.15C11.7624 5.27 11.7224 5.37 11.6424 5.45C11.5624 5.534 11.4624 5.576 11.3424 5.576ZM14.0834 5.606C13.7514 5.606 13.4554 5.548 13.1954 5.432C12.9394 5.316 12.7394 5.154 12.5954 4.946C12.4514 4.738 12.3794 4.502 12.3794 4.238C12.3794 4.01 12.4294 3.81 12.5294 3.638C12.6334 3.466 12.7614 3.328 12.9134 3.224C13.0694 3.116 13.2274 3.044 13.3874 3.008C13.2514 2.968 13.1194 2.898 12.9914 2.798C12.8634 2.694 12.7574 2.566 12.6734 2.414C12.5894 2.258 12.5474 2.084 12.5474 1.892C12.5474 1.652 12.6114 1.432 12.7394 1.232C12.8714 1.032 13.0534 0.874 13.2854 0.758C13.5174 0.638 13.7834 0.578 14.0834 0.578C14.3794 0.578 14.6434 0.638 14.8754 0.758C15.1074 0.874 15.2874 1.034 15.4154 1.238C15.5474 1.438 15.6134 1.656 15.6134 1.892C15.6134 2.084 15.5714 2.258 15.4874 2.414C15.4034 2.566 15.2974 2.694 15.1694 2.798C15.0414 2.898 14.9094 2.968 14.7734 3.008C14.9334 3.044 15.0894 3.116 15.2414 3.224C15.3974 3.328 15.5254 3.466 15.6254 3.638C15.7294 3.81 15.7814 4.01 15.7814 4.238C15.7814 4.502 15.7094 4.738 15.5654 4.946C15.4214 5.154 15.2194 5.316 14.9594 5.432C14.7034 5.548 14.4114 5.606 14.0834 5.606ZM14.0834 2.726C14.2634 2.726 14.4234 2.69 14.5634 2.618C14.7034 2.546 14.8134 2.448 14.8934 2.324C14.9734 2.2 15.0134 2.062 15.0134 1.91C15.0134 1.762 14.9734 1.628 14.8934 1.508C14.8174 1.384 14.7094 1.286 14.5694 1.214C14.4294 1.142 14.2674 1.106 14.0834 1.106C13.8074 1.106 13.5834 1.182 13.4114 1.334C13.2394 1.482 13.1534 1.67 13.1534 1.898C13.1534 2.05 13.1934 2.19 13.2734 2.318C13.3534 2.442 13.4634 2.542 13.6034 2.618C13.7434 2.69 13.9034 2.726 14.0834 2.726ZM14.0834 5.078C14.2994 5.078 14.4894 5.04 14.6534 4.964C14.8174 4.888 14.9434 4.784 15.0314 4.652C15.1234 4.516 15.1694 4.366 15.1694 4.202C15.1694 4.034 15.1214 3.882 15.0254 3.746C14.9334 3.61 14.8034 3.504 14.6354 3.428C14.4714 3.348 14.2874 3.308 14.0834 3.308C13.8754 3.308 13.6874 3.348 13.5194 3.428C13.3554 3.504 13.2254 3.61 13.1294 3.746C13.0374 3.882 12.9914 4.034 12.9914 4.202C12.9914 4.366 13.0354 4.516 13.1234 4.652C13.2154 4.784 13.3434 4.888 13.5074 4.964C13.6754 5.04 13.8674 5.078 14.0834 5.078Z" fill="#666666"/>
<path d="M53.266 20.244H52.27V19.692H53.896V24.498H53.266V20.244ZM57.3793 20.244H54.8113V19.692H58.1053V20.112L56.0893 24.498H55.4233L57.3793 20.244ZM58.358 24.576C58.238 24.576 58.136 24.534 58.052 24.45C57.972 24.37 57.932 24.27 57.932 24.15C57.932 24.03 57.972 23.93 58.052 23.85C58.136 23.766 58.238 23.724 58.358 23.724C58.478 23.724 58.578 23.766 58.658 23.85C58.738 23.93 58.778 24.03 58.778 24.15C58.778 24.27 58.738 24.37 58.658 24.45C58.578 24.534 58.478 24.576 58.358 24.576ZM59.419 24.09L61.123 22.38C61.427 22.072 61.645 21.814 61.777 21.606C61.909 21.394 61.975 21.202 61.975 21.03C61.975 20.75 61.887 20.532 61.711 20.376C61.535 20.216 61.295 20.136 60.991 20.136C60.783 20.136 60.603 20.184 60.451 20.28C60.303 20.372 60.189 20.496 60.109 20.652C60.033 20.808 59.995 20.978 59.995 21.162H59.365C59.365 20.87 59.431 20.604 59.563 20.364C59.699 20.124 59.891 19.934 60.139 19.794C60.387 19.65 60.673 19.578 60.997 19.578C61.317 19.578 61.597 19.638 61.837 19.758C62.081 19.878 62.269 20.048 62.401 20.268C62.533 20.488 62.599 20.74 62.599 21.024C62.599 21.276 62.523 21.526 62.371 21.774C62.219 22.022 61.957 22.336 61.585 22.716L60.325 23.952H62.761V24.498H59.419V24.09Z" fill="#666666"/>
<path d="M101.266 35.244H100.27V34.692H101.896V39.498H101.266V35.244ZM105.293 38.412H102.869V37.878L105.149 34.692H105.893V37.878H106.679V38.412H105.893V39.498H105.293V38.412ZM105.293 37.878V35.382L103.517 37.878H105.293ZM107.454 39.576C107.334 39.576 107.232 39.534 107.148 39.45C107.068 39.37 107.028 39.27 107.028 39.15C107.028 39.03 107.068 38.93 107.148 38.85C107.232 38.766 107.334 38.724 107.454 38.724C107.574 38.724 107.674 38.766 107.754 38.85C107.834 38.93 107.874 39.03 107.874 39.15C107.874 39.27 107.834 39.37 107.754 39.45C107.674 39.534 107.574 39.576 107.454 39.576ZM110.121 39.606C109.777 39.606 109.471 39.512 109.203 39.324C108.935 39.136 108.725 38.854 108.573 38.478C108.421 38.098 108.345 37.636 108.345 37.092C108.345 36.548 108.421 36.088 108.573 35.712C108.725 35.332 108.935 35.048 109.203 34.86C109.471 34.672 109.777 34.578 110.121 34.578C110.465 34.578 110.769 34.672 111.033 34.86C111.301 35.048 111.511 35.332 111.663 35.712C111.815 36.088 111.891 36.548 111.891 37.092C111.891 37.636 111.815 38.098 111.663 38.478C111.511 38.854 111.301 39.136 111.033 39.324C110.769 39.512 110.465 39.606 110.121 39.606ZM110.121 39.048C110.341 39.048 110.539 38.974 110.715 38.826C110.891 38.678 111.029 38.458 111.129 38.166C111.233 37.874 111.285 37.516 111.285 37.092C111.285 36.672 111.233 36.316 111.129 36.024C111.029 35.728 110.891 35.506 110.715 35.358C110.539 35.21 110.341 35.136 110.121 35.136C109.897 35.136 109.697 35.21 109.521 35.358C109.345 35.506 109.205 35.728 109.101 36.024C109.001 36.316 108.951 36.672 108.951 37.092C108.951 37.516 109.001 37.874 109.101 38.166C109.205 38.458 109.345 38.678 109.521 38.826C109.697 38.974 109.897 39.048 110.121 39.048Z" fill="#666666"/>
<path d="M149.266 47.244H148.27V46.692H149.896V51.498H149.266V47.244ZM152.675 51.606C152.339 51.606 152.043 51.542 151.787 51.414C151.535 51.29 151.339 51.118 151.199 50.898C151.059 50.674 150.983 50.422 150.971 50.142H151.595C151.603 50.41 151.703 50.63 151.895 50.802C152.087 50.974 152.347 51.06 152.675 51.06C152.895 51.06 153.085 51.022 153.245 50.946C153.409 50.87 153.533 50.766 153.617 50.634C153.705 50.502 153.749 50.356 153.749 50.196C153.749 49.928 153.647 49.718 153.443 49.566C153.239 49.414 152.955 49.338 152.591 49.338H152.063V48.816H152.591C152.895 48.816 153.141 48.738 153.329 48.582C153.521 48.422 153.617 48.218 153.617 47.97C153.617 47.814 153.577 47.672 153.497 47.544C153.417 47.412 153.299 47.308 153.143 47.232C152.991 47.156 152.813 47.118 152.609 47.118C152.401 47.118 152.221 47.162 152.069 47.25C151.917 47.338 151.801 47.456 151.721 47.604C151.645 47.752 151.607 47.912 151.607 48.084H150.977C150.977 47.804 151.045 47.55 151.181 47.322C151.317 47.09 151.509 46.908 151.757 46.776C152.005 46.644 152.289 46.578 152.609 46.578C152.929 46.578 153.213 46.64 153.461 46.764C153.709 46.884 153.901 47.05 154.037 47.262C154.173 47.47 154.241 47.7 154.241 47.952C154.241 48.232 154.157 48.472 153.989 48.672C153.821 48.872 153.619 49 153.383 49.056C153.651 49.104 153.881 49.228 154.073 49.428C154.269 49.624 154.367 49.878 154.367 50.19C154.367 50.458 154.295 50.7 154.151 50.916C154.011 51.128 153.811 51.296 153.551 51.42C153.295 51.544 153.003 51.606 152.675 51.606ZM155.436 51.576C155.316 51.576 155.214 51.534 155.13 51.45C155.05 51.37 155.01 51.27 155.01 51.15C155.01 51.03 155.05 50.93 155.13 50.85C155.214 50.766 155.316 50.724 155.436 50.724C155.556 50.724 155.656 50.766 155.736 50.85C155.816 50.93 155.856 51.03 155.856 51.15C155.856 51.27 155.816 51.37 155.736 51.45C155.656 51.534 155.556 51.576 155.436 51.576ZM157.739 48.456C157.899 48.38 158.071 48.342 158.255 48.342C158.567 48.342 158.851 48.41 159.107 48.546C159.367 48.682 159.571 48.872 159.719 49.116C159.871 49.36 159.947 49.642 159.947 49.962C159.947 50.286 159.869 50.574 159.713 50.826C159.561 51.074 159.353 51.266 159.089 51.402C158.825 51.538 158.531 51.606 158.207 51.606C157.883 51.606 157.587 51.538 157.319 51.402C157.055 51.266 156.845 51.074 156.689 50.826C156.537 50.574 156.461 50.286 156.461 49.962C156.461 49.726 156.499 49.506 156.575 49.302C156.651 49.098 156.769 48.878 156.929 48.642L158.231 46.692H158.951L157.739 48.456ZM158.207 51.06C158.431 51.06 158.627 51.012 158.795 50.916C158.967 50.82 159.099 50.69 159.191 50.526C159.283 50.358 159.329 50.172 159.329 49.968C159.329 49.76 159.283 49.574 159.191 49.41C159.099 49.242 158.967 49.11 158.795 49.014C158.627 48.918 158.431 48.87 158.207 48.87C157.979 48.87 157.779 48.918 157.607 49.014C157.439 49.11 157.309 49.242 157.217 49.41C157.125 49.578 157.079 49.764 157.079 49.968C157.079 50.172 157.125 50.358 157.217 50.526C157.309 50.69 157.439 50.82 157.607 50.916C157.779 51.012 157.979 51.06 158.207 51.06Z" fill="#666666"/>
<path d="M198.388 72.728C198.228 72.804 198.056 72.842 197.872 72.842C197.56 72.842 197.274 72.774 197.014 72.638C196.758 72.502 196.554 72.312 196.402 72.068C196.254 71.824 196.18 71.542 196.18 71.222C196.18 70.898 196.256 70.612 196.408 70.364C196.564 70.112 196.774 69.918 197.038 69.782C197.302 69.646 197.596 69.578 197.92 69.578C198.244 69.578 198.538 69.646 198.802 69.782C199.07 69.918 199.28 70.112 199.432 70.364C199.588 70.612 199.666 70.898 199.666 71.222C199.666 71.454 199.626 71.674 199.546 71.882C199.47 72.086 199.354 72.306 199.198 72.542L197.896 74.492H197.176L198.388 72.728ZM197.92 70.124C197.696 70.124 197.498 70.172 197.326 70.268C197.158 70.364 197.028 70.496 196.936 70.664C196.844 70.828 196.798 71.012 196.798 71.216C196.798 71.424 196.844 71.612 196.936 71.78C197.028 71.944 197.158 72.074 197.326 72.17C197.498 72.266 197.696 72.314 197.92 72.314C198.148 72.314 198.346 72.266 198.514 72.17C198.686 72.074 198.818 71.942 198.91 71.774C199.002 71.606 199.048 71.42 199.048 71.216C199.048 71.012 199.002 70.828 198.91 70.664C198.818 70.496 198.686 70.364 198.514 70.268C198.346 70.172 198.148 70.124 197.92 70.124ZM200.102 74.576C199.982 74.576 199.88 74.534 199.796 74.45C199.716 74.37 199.676 74.27 199.676 74.15C199.676 74.03 199.716 73.93 199.796 73.85C199.88 73.766 199.982 73.724 200.102 73.724C200.222 73.724 200.322 73.766 200.402 73.85C200.482 73.93 200.522 74.03 200.522 74.15C200.522 74.27 200.482 74.37 200.402 74.45C200.322 74.534 200.222 74.576 200.102 74.576ZM202.843 74.606C202.511 74.606 202.215 74.548 201.955 74.432C201.699 74.316 201.499 74.154 201.355 73.946C201.211 73.738 201.139 73.502 201.139 73.238C201.139 73.01 201.189 72.81 201.289 72.638C201.393 72.466 201.521 72.328 201.673 72.224C201.829 72.116 201.987 72.044 202.147 72.008C202.011 71.968 201.879 71.898 201.751 71.798C201.623 71.694 201.517 71.566 201.433 71.414C201.349 71.258 201.307 71.084 201.307 70.892C201.307 70.652 201.371 70.432 201.499 70.232C201.631 70.032 201.813 69.874 202.045 69.758C202.277 69.638 202.543 69.578 202.843 69.578C203.139 69.578 203.403 69.638 203.635 69.758C203.867 69.874 204.047 70.034 204.175 70.238C204.307 70.438 204.373 70.656 204.373 70.892C204.373 71.084 204.331 71.258 204.247 71.414C204.163 71.566 204.057 71.694 203.929 71.798C203.801 71.898 203.669 71.968 203.533 72.008C203.693 72.044 203.849 72.116 204.001 72.224C204.157 72.328 204.285 72.466 204.385 72.638C204.489 72.81 204.541 73.01 204.541 73.238C204.541 73.502 204.469 73.738 204.325 73.946C204.181 74.154 203.979 74.316 203.719 74.432C203.463 74.548 203.171 74.606 202.843 74.606ZM202.843 71.726C203.023 71.726 203.183 71.69 203.323 71.618C203.463 71.546 203.573 71.448 203.653 71.324C203.733 71.2 203.773 71.062 203.773 70.91C203.773 70.762 203.733 70.628 203.653 70.508C203.577 70.384 203.469 70.286 203.329 70.214C203.189 70.142 203.027 70.106 202.843 70.106C202.567 70.106 202.343 70.182 202.171 70.334C201.999 70.482 201.913 70.67 201.913 70.898C201.913 71.05 201.953 71.19 202.033 71.318C202.113 71.442 202.223 71.542 202.363 71.618C202.503 71.69 202.663 71.726 202.843 71.726ZM202.843 74.078C203.059 74.078 203.249 74.04 203.413 73.964C203.577 73.888 203.703 73.784 203.791 73.652C203.883 73.516 203.929 73.366 203.929 73.202C203.929 73.034 203.881 72.882 203.785 72.746C203.693 72.61 203.563 72.504 203.395 72.428C203.231 72.348 203.047 72.308 202.843 72.308C202.635 72.308 202.447 72.348 202.279 72.428C202.115 72.504 201.985 72.61 201.889 72.746C201.797 72.882 201.751 73.034 201.751 73.202C201.751 73.366 201.795 73.516 201.883 73.652C201.975 73.784 202.103 73.888 202.267 73.964C202.435 74.04 202.627 74.078 202.843 74.078Z" fill="#666666"/>
<path d="M247.536 93.456C247.696 93.38 247.868 93.342 248.052 93.342C248.364 93.342 248.648 93.41 248.904 93.546C249.164 93.682 249.368 93.872 249.516 94.116C249.668 94.36 249.744 94.642 249.744 94.962C249.744 95.286 249.666 95.574 249.51 95.826C249.358 96.074 249.15 96.266 248.886 96.402C248.622 96.538 248.328 96.606 248.004 96.606C247.68 96.606 247.384 96.538 247.116 96.402C246.852 96.266 246.642 96.074 246.486 95.826C246.334 95.574 246.258 95.286 246.258 94.962C246.258 94.726 246.296 94.506 246.372 94.302C246.448 94.098 246.566 93.878 246.726 93.642L248.028 91.692H248.748L247.536 93.456ZM248.004 96.06C248.228 96.06 248.424 96.012 248.592 95.916C248.764 95.82 248.896 95.69 248.988 95.526C249.08 95.358 249.126 95.172 249.126 94.968C249.126 94.76 249.08 94.574 248.988 94.41C248.896 94.242 248.764 94.11 248.592 94.014C248.424 93.918 248.228 93.87 248.004 93.87C247.776 93.87 247.576 93.918 247.404 94.014C247.236 94.11 247.106 94.242 247.014 94.41C246.922 94.578 246.876 94.764 246.876 94.968C246.876 95.172 246.922 95.358 247.014 95.526C247.106 95.69 247.236 95.82 247.404 95.916C247.576 96.012 247.776 96.06 248.004 96.06ZM250.518 96.576C250.398 96.576 250.296 96.534 250.212 96.45C250.132 96.37 250.092 96.27 250.092 96.15C250.092 96.03 250.132 95.93 250.212 95.85C250.296 95.766 250.398 95.724 250.518 95.724C250.638 95.724 250.738 95.766 250.818 95.85C250.898 95.93 250.938 96.03 250.938 96.15C250.938 96.27 250.898 96.37 250.818 96.45C250.738 96.534 250.638 96.576 250.518 96.576ZM253.259 96.606C252.927 96.606 252.631 96.548 252.371 96.432C252.115 96.316 251.915 96.154 251.771 95.946C251.627 95.738 251.555 95.502 251.555 95.238C251.555 95.01 251.605 94.81 251.705 94.638C251.809 94.466 251.937 94.328 252.089 94.224C252.245 94.116 252.403 94.044 252.563 94.008C252.427 93.968 252.295 93.898 252.167 93.798C252.039 93.694 251.933 93.566 251.849 93.414C251.765 93.258 251.723 93.084 251.723 92.892C251.723 92.652 251.787 92.432 251.915 92.232C252.047 92.032 252.229 91.874 252.461 91.758C252.693 91.638 252.959 91.578 253.259 91.578C253.555 91.578 253.819 91.638 254.051 91.758C254.283 91.874 254.463 92.034 254.591 92.238C254.723 92.438 254.789 92.656 254.789 92.892C254.789 93.084 254.747 93.258 254.663 93.414C254.579 93.566 254.473 93.694 254.345 93.798C254.217 93.898 254.085 93.968 253.949 94.008C254.109 94.044 254.265 94.116 254.417 94.224C254.573 94.328 254.701 94.466 254.801 94.638C254.905 94.81 254.957 95.01 254.957 95.238C254.957 95.502 254.885 95.738 254.741 95.946C254.597 96.154 254.395 96.316 254.135 96.432C253.879 96.548 253.587 96.606 253.259 96.606ZM253.259 93.726C253.439 93.726 253.599 93.69 253.739 93.618C253.879 93.546 253.989 93.448 254.069 93.324C254.149 93.2 254.189 93.062 254.189 92.91C254.189 92.762 254.149 92.628 254.069 92.508C253.993 92.384 253.885 92.286 253.745 92.214C253.605 92.142 253.443 92.106 253.259 92.106C252.983 92.106 252.759 92.182 252.587 92.334C252.415 92.482 252.329 92.67 252.329 92.898C252.329 93.05 252.369 93.19 252.449 93.318C252.529 93.442 252.639 93.542 252.779 93.618C252.919 93.69 253.079 93.726 253.259 93.726ZM253.259 96.078C253.475 96.078 253.665 96.04 253.829 95.964C253.993 95.888 254.119 95.784 254.207 95.652C254.299 95.516 254.345 95.366 254.345 95.202C254.345 95.034 254.297 94.882 254.201 94.746C254.109 94.61 253.979 94.504 253.811 94.428C253.647 94.348 253.463 94.308 253.259 94.308C253.051 94.308 252.863 94.348 252.695 94.428C252.531 94.504 252.401 94.61 252.305 94.746C252.213 94.882 252.167 95.034 252.167 95.202C252.167 95.366 252.211 95.516 252.299 95.652C252.391 95.784 252.519 95.888 252.683 95.964C252.851 96.04 253.043 96.078 253.259 96.078Z" fill="#666666"/>
</svg>
