<svg width="61" height="61" viewBox="0 0 61 61" fill="none" xmlns="http://www.w3.org/2000/svg">
<path fill-rule="evenodd" clip-rule="evenodd" d="M53 2H8C4.68629 2 2 4.68629 2 8V53C2 56.3137 4.68629 59 8 59H10.3374C10.2269 58.6873 10.1668 58.3507 10.1668 58.0001L10.1668 42.5668C10.1668 38.1485 13.7485 34.5668 18.1668 34.5668H24.479C20.7176 32.4887 18.1702 28.4822 18.1702 23.8809C18.1702 17.143 23.6323 11.6809 30.3702 11.6809C37.1081 11.6809 42.5702 17.143 42.5702 23.8809C42.5702 28.4822 40.0228 32.4887 36.2614 34.5668H42.8334C47.2517 34.5668 50.8334 38.1485 50.8334 42.5668V58.0001C50.8334 58.3507 50.7733 58.6873 50.6628 59H53C56.3137 59 59 56.3137 59 53V8C59 4.68629 56.3137 2 53 2ZM13.1512 59H47.849C48.3941 58.9917 48.8334 58.5472 48.8334 58.0001V42.5668C48.8334 39.2531 46.1471 36.5668 42.8334 36.5668H18.1668C14.8531 36.5668 12.1668 39.2531 12.1668 42.5668L12.1668 58.0001C12.1668 58.5472 12.6061 58.9917 13.1512 59ZM8 61H13.1399L13.1668 61.0001H47.8334L47.8604 61H53C57.4183 61 61 57.4183 61 53V8C61 3.58172 57.4183 0 53 0H8C3.58172 0 0 3.58172 0 8V53C0 57.4183 3.58172 61 8 61ZM40.5702 23.8809C40.5702 29.5142 36.0035 34.0809 30.3702 34.0809C24.7369 34.0809 20.1702 29.5142 20.1702 23.8809C20.1702 18.2475 24.7369 13.6809 30.3702 13.6809C36.0035 13.6809 40.5702 18.2475 40.5702 23.8809Z" fill="black"/>
</svg>
